<svg xmlns="http://www.w3.org/2000/svg" viewBox="0 0 512 512">
<defs>
<linearGradient id="bg" x1="0" y1="0" x2="1" y2="1" gradientUnits="objectBoundingBox">
<stop offset="0%" stop-color="#0a0f2e"/><stop offset="100%" stop-color="#040812"/>
</linearGradient>
<filter id="sh"><feDropShadow dx="0" dy="2" stdDeviation="2.5" flood-color="#000" flood-opacity="0.6"/></filter>
<filter id="glow"><feGaussianBlur stdDeviation="3" result="b"/><feMerge><feMergeNode in="b"/><feMergeNode in="SourceGraphic"/></feMerge></filter>
</defs>
<rect width="512" height="512" rx="80" fill="url(#bg)"/>
<!-- deniz gölgesi -->
<path d="M31.4,194.1L31.3,194.0L31.4,193.9L31.4,194.0L31.4,194.1Z M31.1,193.7L31.2,193.6L31.3,193.8L31.1,193.7L31.1,193.7Z M31.5,193.6L31.7,193.5L31.6,193.7L31.5,193.6Z M25.5,190.6L25.5,190.4L25.6,190.7L25.5,190.6Z M37.5,189.3L37.5,189.4L37.4,189.4L37.4,189.3L37.5,189.3Z M31.8,188.2L31.9,188.4L31.7,188.5L31.6,188.3L31.8,188.2Z M32.0,187.9L32.1,187.7L32.1,187.9L32.0,187.9Z M31.6,187.5L31.7,187.6L31.6,187.6L31.6,187.5Z M31.6,187.3L31.6,187.4L31.6,187.4L31.6,187.3Z M32.0,187.3L32.0,187.1L32.1,187.6L32.0,187.3Z M32.2,187.1L32.2,187.2L32.2,187.3L32.1,187.1L32.2,187.1Z M32.7,187.0L32.8,187.0L32.7,187.0L32.7,187.0L32.7,187.0Z M28.1,186.6L28.1,186.4L28.2,186.6L28.2,186.7L28.1,186.6Z M29.7,186.1L30.0,186.0L30.1,186.4L29.7,186.3L29.7,186.1Z M29.6,186.0L29.7,186.1L29.6,186.3L29.6,186.0Z M28.5,185.8L29.4,185.3L29.3,186.2L28.5,185.8Z M39.1,185.3L37.9,184.6L38.0,182.4L38.8,183.0L39.1,185.3Z M33.5,179.0L33.6,179.1L33.6,179.1L33.5,179.1L33.5,179.0Z M33.3,178.7L33.4,178.9L33.2,178.9L33.3,178.7Z M38.6,178.3L38.8,178.4L38.8,178.5L38.6,178.3Z M38.4,178.3L38.5,178.2L38.3,178.4L38.4,178.3Z M38.3,177.4L38.7,177.7L38.6,177.9L38.3,177.8L38.3,177.4Z M38.3,177.0L38.3,177.1L38.2,177.2L38.2,177.1L38.3,177.0Z M38.9,176.4L38.9,176.4L38.9,176.5L38.9,176.5L38.9,176.4Z M34.9,159.0L35.3,158.2L35.5,158.2L35.6,158.8L34.9,159.0Z M33.6,157.6L33.7,157.6L33.6,157.6L33.6,157.6Z M36.9,157.5L36.9,157.5L37.0,157.5L37.0,157.5L36.9,157.5Z M33.7,157.5L33.8,157.2L34.1,157.5L33.7,157.5Z M35.4,157.1L35.7,156.9L35.8,157.2L35.4,157.1Z M34.8,157.2L34.8,156.9L34.9,156.8L35.0,157.0L34.8,157.2Z M37.6,156.8L37.9,156.7L38.0,156.9L37.6,156.8Z M35.5,156.8L35.1,156.9L35.1,156.7L35.4,156.7L35.5,156.8Z M37.1,156.6L37.2,156.6L37.3,156.5L37.3,156.6L37.1,156.6Z M35.7,156.6L35.9,155.2L37.3,155.4L36.1,156.0L37.8,157.2L35.7,156.6Z M37.9,156.1L37.9,156.0L38.0,155.9L38.0,156.0L37.9,156.1Z M38.7,155.8L38.7,155.8L38.7,155.7L38.7,155.8L38.7,155.8Z M38.1,155.9L38.1,155.7L38.2,155.6L38.3,155.9L38.1,155.9Z M34.7,155.8L34.7,155.6L34.8,155.5L34.9,155.7L34.7,155.8Z M35.2,156.1L34.9,155.4L35.6,155.2L35.2,156.1Z M38.2,154.9L38.2,154.8L38.4,154.7L38.3,154.9L38.2,154.9Z M19.2,141.0L21.6,140.7L22.3,142.2L21.8,142.6L19.2,141.0Z M22.3,138.4L22.4,138.4L22.4,138.4L22.3,138.4Z M21.5,138.1L21.5,138.0L21.6,138.1L21.5,138.1Z M21.9,138.0L21.8,137.7L22.2,137.8L21.9,138.0Z M19.9,131.2L13.5,132.9L11.7,131.8L18.8,128.1L19.9,131.2Z M38.2,123.5L38.2,123.4L38.4,123.3L38.4,123.6L38.2,123.5Z M38.8,116.1L39.0,115.9L39.1,116.1L38.8,116.1Z M39.4,116.0L39.5,115.8L39.5,115.9L39.4,116.0Z M21.0,111.8L21.0,111.7L21.0,111.6L21.0,111.7L21.0,111.8Z M20.9,111.0L20.9,111.1L20.5,110.5L20.8,110.8L20.9,111.0Z M56.0,240.4L56.0,240.3L56.2,240.5L56.0,240.4Z M53.4,233.6L53.5,233.6L53.5,233.6L53.5,233.7L53.4,233.6Z M56.6,232.2L58.0,232.8L58.2,233.1L57.1,233.0L56.6,232.2Z M51.5,232.6L51.6,232.5L51.6,232.7L51.5,232.6Z M50.7,232.3L50.7,232.3L50.8,232.3L50.8,232.3L50.7,232.3Z M55.4,232.2L55.5,232.0L55.5,232.4L55.4,232.2Z M50.9,232.1L51.3,231.6L51.4,231.8L50.9,232.2L50.9,232.1Z M50.3,231.9L50.4,231.9L50.4,231.9L50.3,231.9L50.3,231.9Z M54.9,231.7L54.9,231.8L54.8,231.9L54.8,231.7L54.9,231.7Z M50.8,230.4L50.9,230.4L50.9,230.6L50.7,230.5L50.8,230.4Z M51.0,229.2L51.1,229.2L51.1,229.4L50.9,229.4L51.0,229.2Z M51.6,229.2L51.7,229.2L51.8,229.3L51.6,229.2Z M52.3,227.9L52.2,227.8L52.2,227.8L52.3,227.8L52.3,227.9Z M55.5,227.6L55.7,227.6L55.6,227.7L55.5,227.6Z M55.1,226.9L54.9,226.5L55.3,226.7L55.1,226.9Z M54.7,226.5L54.8,226.4L54.9,226.4L54.9,226.5L54.7,226.5Z M55.1,223.0L55.0,223.1L54.9,223.1L55.0,222.9L55.1,223.0Z M54.1,221.4L54.2,221.5L54.1,221.7L54.0,221.6L54.1,221.4Z M56.1,218.9L56.2,218.8L56.2,218.9L56.1,218.9L56.1,218.9Z M50.3,214.1L50.3,214.0L50.3,214.1L50.3,214.1Z M49.2,212.6L49.3,212.4L49.8,213.2L49.2,212.6Z M45.7,211.1L45.8,211.1L45.8,211.2L45.7,211.1Z M45.9,211.1L46.1,211.1L46.0,211.1L45.9,211.1Z M46.1,209.9L46.2,209.8L46.2,209.9L46.1,209.9L46.1,209.9Z M42.6,199.3L42.7,199.2L42.8,199.3L42.7,199.3L42.6,199.3Z M46.0,198.5L46.1,198.6L46.0,198.6L46.0,198.5L46.0,198.5Z M42.0,198.5L42.0,198.6L42.0,198.5L42.0,198.5L42.0,198.5Z M40.7,195.1L40.7,195.1L40.6,195.2L40.7,195.1Z M40.6,194.8L40.7,194.8L40.6,194.9L40.6,194.8Z M39.8,193.6L39.8,193.5L39.9,193.6L39.9,193.6L39.8,193.6Z M40.2,187.9L40.4,188.0L40.2,188.2L40.2,187.9Z M40.2,187.3L40.3,187.2L40.4,187.3L40.2,187.4L40.2,187.3Z M39.8,186.8L39.9,186.9L39.8,187.0L39.8,186.8L39.8,186.8Z M40.4,186.8L40.5,186.7L40.6,186.9L40.4,186.9L40.4,186.8Z M40.1,186.6L40.2,186.6L40.2,186.6L40.2,186.7L40.1,186.6Z M45.0,185.8L45.0,185.8L45.0,186.0L44.9,186.0L45.0,185.8Z M39.6,185.5L39.8,185.4L40.0,185.8L39.7,186.0L39.6,185.5Z M43.7,185.7L43.7,185.6L43.8,185.7L43.7,185.7Z M41.8,182.8L42.0,182.9L42.0,182.9L41.8,182.8Z M42.1,182.9L42.1,182.8L42.2,182.9L42.1,182.9Z M41.1,182.5L41.3,182.7L41.3,182.9L40.9,182.5L41.1,182.5Z M42.5,172.6L42.7,172.5L42.8,172.8L42.5,172.8L42.5,172.6Z M42.9,172.2L43.0,172.2L42.9,172.3L42.9,172.2Z M46.7,171.6L46.7,171.6L46.7,171.5L46.7,171.6L46.7,171.6Z M41.5,170.8L41.6,171.0L41.6,171.1L41.4,171.0L41.5,170.8Z M40.7,170.6L40.9,170.2L41.2,170.4L41.2,170.8L40.7,170.6Z M40.7,170.0L40.7,169.9L40.8,170.0L40.7,170.0Z M40.6,167.5L40.5,168.0L40.4,168.0L40.4,167.6L40.6,167.5Z M40.3,167.5L40.3,167.7L40.2,167.9L40.1,167.6L40.3,167.5Z M39.6,155.9L39.6,155.8L39.8,155.7L39.8,155.9L39.6,155.9Z M72.1,246.3L72.1,246.2L72.1,246.3L72.1,246.4L72.1,246.3Z M72.1,246.1L72.2,246.1L72.1,246.2L72.1,246.1Z M72.6,244.3L72.7,244.4L72.5,244.5L72.6,244.3Z M72.5,244.1L72.5,244.0L72.6,244.2L72.5,244.1Z M72.4,243.4L72.6,243.3L72.7,243.4L72.4,243.4Z M58.6,243.0L58.7,243.0L58.7,243.2L58.6,243.0Z M71.9,243.0L72.1,242.6L72.4,243.1L72.2,243.3L71.9,243.0Z M71.5,242.7L71.5,242.8L71.5,242.8L71.5,242.7L71.5,242.7Z M72.3,242.6L72.2,242.7L72.2,242.7L72.2,242.6L72.3,242.6Z M72.3,242.3L72.3,242.3L72.3,242.2L72.3,242.2L72.3,242.3Z M70.9,241.6L70.9,241.5L70.9,241.6L70.9,241.6Z M71.0,241.4L71.1,241.4L71.1,241.4L71.1,241.5L71.0,241.4Z M71.2,241.1L71.3,241.1L71.3,241.3L71.2,241.1Z M71.6,241.0L72.0,240.9L71.6,241.3L71.6,241.0Z M72.7,240.9L72.3,240.9L72.5,240.6L72.7,240.9Z M70.2,240.1L70.2,240.0L70.3,240.0L70.3,240.1L70.2,240.1Z M65.8,240.0L65.9,240.0L65.9,240.0L65.8,240.1L65.8,240.0Z M65.2,240.0L65.1,240.0L65.0,240.1L65.1,240.0L65.2,240.0Z M65.5,239.9L65.5,240.0L65.4,240.0L65.4,239.9L65.5,239.9Z M66.2,239.8L66.3,239.8L66.3,239.8L66.2,239.9L66.2,239.8Z M72.0,239.8L72.1,239.7L72.1,239.7L72.1,239.8L72.0,239.8Z M57.6,239.5L57.6,239.4L57.7,239.5L57.6,239.5Z M57.4,239.4L57.4,239.3L57.5,239.4L57.4,239.4Z M71.6,236.3L71.9,236.3L71.9,236.4L71.6,236.3L71.6,236.3Z M72.1,236.2L72.1,236.2L72.0,236.3L72.1,236.2Z M72.3,236.1L72.3,236.1L72.3,236.0L72.3,236.0L72.3,236.1Z M72.1,235.7L72.1,235.8L72.1,235.8L72.0,235.8L72.1,235.7Z M60.7,232.7L61.0,232.9L61.0,233.1L60.8,233.1L60.7,232.7Z M60.5,232.8L60.5,232.8L60.4,232.8L60.5,232.8L60.5,232.8Z M62.4,232.7L62.4,232.7L62.4,232.8L62.4,232.7Z M57.6,228.2L57.8,228.1L57.7,228.3L57.6,228.2Z M58.0,227.9L57.9,228.1L57.9,228.1L57.9,227.9L58.0,227.9Z M59.3,226.8L59.2,227.5L58.2,227.5L58.3,227.0L59.3,226.8Z M58.9,225.8L59.0,225.7L59.0,225.8L58.9,225.8Z M59.7,225.7L59.7,225.6L59.8,225.7L59.7,225.7Z M59.7,224.0L59.7,223.9L60.1,224.2L59.7,224.0Z M60.0,223.9L60.0,223.9L60.0,223.9L59.9,223.9L60.0,223.9Z M65.6,123.8L65.6,123.8L65.8,123.7L65.8,123.8L65.6,123.8Z M62.4,121.5L62.3,121.3L62.6,120.8L62.7,121.5L62.4,121.5Z M60.0,120.8L60.1,120.7L60.1,120.8L60.1,120.9L60.0,120.8Z M60.4,121.0L61.0,119.5L62.3,120.0L62.2,121.3L60.4,121.0Z M59.0,119.7L59.4,120.1L58.2,120.8L58.9,118.5L59.0,119.7Z M60.5,119.9L60.3,119.8L60.6,118.9L60.6,119.6L60.5,119.9Z M63.8,119.0L63.7,119.0L63.8,118.9L63.8,119.0L63.8,119.0Z M57.5,118.5L57.6,118.2L58.6,118.2L57.5,118.5Z M59.3,115.1L61.9,114.4L64.7,115.5L61.2,117.4L59.3,115.1Z M65.0,115.5L65.0,115.5L65.1,115.5L65.0,115.5L65.0,115.5Z M58.1,115.4L57.9,115.2L58.1,115.0L58.2,115.1L58.1,115.4Z M62.9,114.7L62.9,114.6L63.0,114.5L63.0,114.6L62.9,114.7Z M24.5,134.3L27.3,128.9L25.8,125.6L41.5,117.2L41.1,115.0L39.6,113.6L40.4,114.7L33.8,116.8L23.4,116.8L21.0,112.3L29.2,105.2L28.6,95.6L36.4,92.3L35.4,84.0L28.9,79.4L29.8,77.0L34.1,76.7L36.1,72.4L45.0,72.2L46.4,69.0L52.2,68.2L59.7,74.8L63.3,72.5L66.1,73.7L67.4,71.7L72.0,72.0L72.7,75.4L70.4,76.0L75.7,86.7L99.5,96.1L97.6,98.7L97.5,102.1L95.2,101.6L96.3,103.6L92.2,105.2L74.3,101.8L72.6,98.9L74.3,101.8L70.3,104.8L65.2,103.3L58.7,104.5L53.6,113.3L38.0,121.2L35.3,125.5L29.3,129.3L29.9,131.2L24.5,134.3Z M109.1,259.3L109.2,259.0L109.9,259.1L109.1,259.3Z M110.7,258.3L110.6,258.2L110.7,258.2L110.7,258.3Z M107.8,257.8L107.8,257.6L107.9,257.6L107.8,257.8L107.8,257.8Z M105.6,257.4L105.5,257.3L106.0,257.2L105.6,257.4Z M106.0,257.1L106.1,257.0L106.2,257.0L106.2,257.1L106.0,257.1Z M98.2,246.8L98.2,246.8L98.2,246.8L98.2,246.9L98.2,246.8Z M98.3,246.4L98.5,246.3L98.6,246.4L98.3,246.4Z M74.3,244.9L74.4,244.9L74.5,245.0L74.3,245.0L74.3,244.9Z M90.6,244.0L90.7,244.0L90.7,244.1L90.6,244.1L90.6,244.0Z M99.2,243.2L99.4,243.2L99.2,243.4L99.2,243.2Z M97.7,242.9L97.9,242.8L98.1,243.0L97.8,243.2L97.7,242.9Z M93.8,242.8L94.3,242.8L94.3,243.3L93.8,242.8Z M94.6,242.3L95.1,242.5L94.5,243.2L94.4,242.6L94.6,242.3Z M97.4,242.6L97.6,242.7L97.6,242.8L97.4,242.7L97.4,242.6Z M88.8,241.9L89.0,241.9L89.0,241.9L88.8,242.0L88.8,241.9Z M94.9,241.8L95.0,241.8L95.0,241.9L94.9,241.9L94.9,241.8Z M96.8,241.9L96.8,241.7L97.0,241.8L97.0,241.9L96.8,241.9Z M94.7,241.7L94.8,241.7L94.9,241.8L94.8,241.9L94.7,241.7Z M95.0,241.5L95.0,241.6L94.9,241.7L95.0,241.5Z M94.9,241.4L95.0,241.3L95.0,241.4L94.9,241.4Z M77.4,241.2L77.5,241.2L77.5,241.3L77.4,241.2Z M95.1,240.5L95.4,240.9L95.1,241.1L95.0,240.9L95.1,240.5Z M72.6,239.7L72.7,239.7L72.7,239.8L72.6,239.8L72.6,239.7Z M74.4,239.7L74.3,239.7L74.4,239.7L74.4,239.8L74.4,239.7Z M82.3,239.2L82.5,239.4L82.2,239.4L82.3,239.2Z M86.4,238.6L86.5,238.6L86.4,238.6L86.4,238.6Z M77.6,238.3L77.8,238.2L77.8,238.6L77.4,238.2L77.6,238.3Z M78.3,237.8L78.5,237.8L78.5,237.9L78.3,237.8Z M82.5,236.5L82.5,236.4L82.6,236.5L82.5,236.5Z M75.2,234.1L75.2,234.2L75.1,234.2L75.1,234.1L75.2,234.1Z M75.1,233.9L75.1,233.8L75.2,233.8L75.2,233.9L75.1,233.9Z M76.1,233.3L76.2,233.2L76.3,233.4L76.0,233.4L76.1,233.3Z M76.3,232.3L76.4,232.2L76.5,232.4L76.3,232.4L76.3,232.3Z M76.5,232.1L76.5,232.2L76.4,232.1L76.4,232.1L76.5,232.1Z M77.3,232.0L77.3,232.0L77.2,232.0L77.2,232.0L77.3,232.0Z M45.3,197.6L42.2,199.1L41.2,194.9L39.5,192.9L36.4,193.3L35.3,196.7L30.2,191.6L26.1,191.4L27.9,189.7L27.5,187.9L29.8,190.1L32.5,187.9L32.3,187.1L31.7,186.2L33.4,186.2L30.2,185.7L29.2,179.5L30.8,178.1L36.1,182.9L35.1,186.3L37.4,190.0L38.1,189.7L38.2,186.0L39.7,188.2L40.8,188.6L50.0,185.8L44.4,186.1L38.6,179.1L39.4,178.6L39.1,176.2L43.0,176.4L44.1,175.4L43.0,173.5L44.9,174.2L47.4,171.8L46.8,169.8L40.6,169.5L40.6,166.9L42.8,165.5L38.5,159.6L35.7,159.2L36.8,157.5L37.3,158.9L37.1,158.1L42.1,152.6L43.9,152.3L43.7,149.2L21.8,152.6L24.4,146.7L24.7,136.2L28.7,134.9L30.5,129.5L33.6,128.8L39.4,122.9L46.5,123.3L53.0,120.6L53.6,123.9L60.5,125.8L60.4,127.1L60.7,125.6L65.1,126.0L68.1,123.8L63.2,120.6L64.9,118.8L72.0,120.4L68.6,123.3L70.0,124.5L76.7,123.0L98.1,124.2L100.6,122.2L91.4,118.1L109.8,112.0L111.0,113.8L120.6,112.7L103.2,110.0L103.4,108.8L103.8,109.0L105.1,108.1L105.6,107.2L103.3,108.4L96.8,103.4L100.9,96.5L118.7,99.1L119.1,100.6L118.7,99.2L126.1,99.3L129.1,96.9L141.4,100.9L153.2,100.6L158.1,96.9L157.9,93.6L177.0,84.2L180.4,80.6L207.3,71.0L239.9,73.5L244.5,73.1L248.2,68.5L250.0,68.6L251.6,70.8L254.6,70.3L251.9,74.1L256.7,80.7L264.0,83.5L273.9,80.1L276.5,81.7L278.5,88.9L285.0,95.5L288.2,95.4L290.9,91.9L292.0,91.5L314.3,103.0L318.0,99.3L320.7,100.0L323.0,104.1L329.2,105.1L326.3,111.8L329.2,105.2L339.6,106.4L349.9,102.3L362.3,100.3L367.9,103.7L383.0,106.0L387.0,102.9L391.1,102.8L404.3,96.7L413.0,91.3L416.6,86.8L423.6,89.8L426.9,86.9L441.3,89.6L443.4,85.0L449.4,85.0L448.7,87.9L450.9,87.6L458.7,94.1L456.7,95.6L459.3,98.1L464.7,98.0L465.6,102.8L470.8,106.0L472.7,114.0L467.5,120.5L470.9,127.5L469.1,129.4L471.8,130.5L470.3,132.3L476.6,135.2L486.3,134.3L491.4,136.9L500.0,147.8L495.0,143.0L491.7,145.6L489.9,154.7L479.9,156.0L481.9,161.4L484.6,163.4L482.9,164.9L484.6,167.0L483.7,168.1L487.1,173.2L487.2,187.6L492.0,189.5L489.5,191.9L489.4,195.3L485.1,203.6L489.7,204.7L490.9,207.4L493.7,207.5L494.6,207.9L494.4,217.8L500.0,222.2L499.6,227.3L495.3,226.1L488.0,230.5L487.2,233.1L484.2,228.9L486.2,224.5L482.7,221.9L470.6,224.7L457.8,220.1L452.9,221.9L448.4,220.0L443.2,227.3L437.3,228.6L437.2,224.8L434.0,221.9L429.5,226.0L416.8,229.3L397.0,228.2L373.1,239.9L357.4,242.8L344.8,241.5L340.5,237.2L331.1,235.1L313.0,243.6L302.9,244.2L301.3,243.0L302.0,240.9L299.2,239.1L292.3,237.0L291.1,237.2L292.4,237.9L289.2,248.2L290.6,253.6L293.1,256.1L285.3,257.0L284.8,264.1L280.5,265.7L279.4,270.1L275.6,268.0L275.3,266.1L273.0,266.3L274.6,263.6L269.5,254.6L272.8,249.9L280.1,245.0L280.4,239.1L275.6,234.3L269.9,239.6L266.6,239.5L264.0,241.3L264.5,242.4L265.5,240.6L268.1,241.3L264.1,246.0L260.3,245.2L258.3,246.9L258.5,244.8L256.0,242.4L254.2,241.9L253.8,242.5L257.9,246.2L247.5,240.9L248.3,240.0L240.8,238.2L231.2,245.4L223.2,256.7L220.8,254.0L216.2,259.8L215.2,257.9L212.9,260.1L210.7,259.1L202.4,259.7L200.7,261.9L197.4,260.8L193.6,263.7L180.7,256.6L173.9,246.9L156.1,238.2L147.8,236.6L138.0,236.9L136.3,243.4L137.2,245.3L134.4,250.2L135.7,253.4L132.5,257.4L132.6,255.3L127.3,254.0L125.1,256.2L120.2,256.7L114.1,260.0L113.1,257.9L111.6,258.2L112.7,257.6L105.7,256.8L99.3,251.7L99.9,246.8L96.9,246.7L99.3,242.6L94.9,239.9L92.7,245.3L91.3,242.2L86.9,241.6L86.2,238.0L83.0,238.1L82.8,235.9L80.9,237.0L82.1,237.3L81.3,239.0L78.5,238.8L79.2,237.6L77.8,237.0L78.9,240.7L71.8,246.2L70.1,244.9L73.6,243.4L72.2,241.9L70.3,242.2L74.5,240.9L73.3,240.3L74.2,238.4L72.5,239.8L69.4,240.4L64.3,239.7L63.0,243.1L60.3,242.2L56.0,242.9L54.9,241.4L62.0,238.1L72.0,238.9L72.8,237.8L71.2,237.4L72.7,236.0L71.7,234.5L75.5,235.1L75.2,233.8L76.4,233.6L76.7,232.1L79.6,231.0L69.3,231.1L60.3,232.3L60.1,232.9L56.5,230.9L53.4,233.4L52.4,233.2L52.2,227.9L53.6,228.4L55.0,227.0L55.5,228.2L57.7,229.5L60.5,227.7L59.1,225.8L61.4,226.0L61.3,223.1L57.3,223.9L58.4,221.9L55.5,221.5L56.7,219.8L56.3,218.6L54.1,221.1L50.6,220.7L51.5,216.9L50.3,216.9L49.8,213.3L51.2,213.1L45.8,210.9L51.5,208.9L52.7,201.8L45.3,197.6Z M73.4,121.3L73.5,121.2L73.6,121.4L73.4,121.3Z M72.8,121.1L73.1,121.0L73.2,121.3L72.8,121.1Z M73.7,120.9L73.7,120.7L73.9,120.8L73.9,120.8L73.7,120.9Z M84.9,118.2L85.1,118.9L84.6,119.4L84.4,117.7L85.3,117.7L84.9,118.2Z M99.5,109.5L99.6,109.5L99.6,109.6L99.5,109.5Z M100.5,108.7L100.3,108.5L100.3,108.3L100.5,108.5L100.5,108.7Z M99.6,108.9L99.4,108.2L100.2,107.9L99.6,108.9Z M96.5,108.1L96.4,108.0L96.6,108.0L96.6,108.1L96.5,108.1Z M95.9,107.8L96.0,107.7L96.0,107.8L95.9,107.8Z M98.6,108.0L99.1,107.4L99.3,107.8L98.6,108.0Z M98.5,107.6L98.0,107.7L98.2,107.3L98.5,107.6Z M98.6,107.5L98.6,107.4L98.7,107.4L98.7,107.4L98.6,107.5Z M97.8,106.9L97.7,106.5L98.0,106.4L98.1,106.7L97.8,106.9Z M113.1,260.5L112.7,260.7L113.0,260.3L113.1,260.5Z M212.1,260.3L212.2,260.2L212.2,260.0L212.3,260.3L212.1,260.3Z M115.5,260.2L115.9,259.6L116.2,259.9L115.5,260.2Z M113.4,259.9L113.4,259.9L113.6,259.8L113.5,260.0L113.4,259.9Z M113.4,259.6L113.3,259.6L113.3,259.6L113.4,259.6Z M112.1,259.5L110.9,260.3L111.8,258.8L112.1,259.5Z M112.5,259.3L112.6,259.2L112.7,259.3L112.5,259.3Z M112.8,259.3L112.7,259.3L112.8,259.2L112.8,259.3Z M216.4,259.0L216.4,259.1L216.3,259.0L216.4,259.0L216.4,259.0Z M112.6,259.0L112.6,259.0L112.7,258.9L112.7,259.0L112.6,259.0Z M112.7,259.0L112.7,259.0L112.7,259.0L112.7,258.9L112.7,259.0Z M118.9,258.8L118.9,258.7L118.9,258.7L118.9,258.8L118.9,258.8Z M118.0,258.8L117.9,258.7L118.0,258.7L118.0,258.8L118.0,258.8Z M117.9,258.7L118.0,258.6L117.9,258.7L117.9,258.7Z M119.2,258.5L118.1,258.7L120.0,257.8L119.2,258.5Z M132.5,258.5L132.4,258.0L132.6,258.0L132.6,258.4L132.5,258.5Z M119.9,258.1L119.9,258.1L119.9,258.0L119.9,258.1L119.9,258.1Z M217.9,258.3L218.1,258.1L218.5,257.7L218.5,258.2L217.9,258.3Z M132.3,257.8L132.4,257.7L132.5,257.7L132.4,257.8L132.3,257.8Z M119.7,257.7L119.6,257.7L119.6,257.5L119.7,257.6L119.7,257.7Z M119.7,257.5L119.5,257.4L119.8,257.3L119.7,257.5Z M134.4,256.8L134.1,256.6L134.2,256.4L134.4,256.7L134.4,256.8Z M125.7,255.7L125.7,255.6L125.8,255.6L125.8,255.7L125.7,255.7Z M219.7,255.7L219.7,255.6L219.8,255.5L219.8,255.6L219.7,255.7Z M136.3,249.5L136.1,249.5L136.2,249.4L136.3,249.5Z M256.8,243.7L256.7,243.6L256.8,243.7L256.8,243.7Z M256.6,243.6L256.5,243.5L256.5,243.5L256.6,243.5L256.6,243.6Z M164.5,243.4L164.6,243.4L164.6,243.4L164.5,243.4Z M255.0,243.3L255.0,243.3L254.9,243.3L254.9,243.3L255.0,243.3Z M255.0,243.2L255.0,243.1L255.0,243.1L255.0,243.2Z M255.0,243.0L255.1,243.0L255.1,243.0L255.0,243.0Z M255.0,242.4L255.0,242.4L254.9,242.4L255.0,242.4L255.0,242.4Z M264.7,241.7L264.7,241.6L264.7,241.6L264.7,241.7L264.7,241.7Z M265.0,241.7L265.1,241.5L265.1,241.5L265.1,241.7L265.0,241.7Z M266.9,241.3L267.0,241.2L267.0,241.2L267.0,241.3L266.9,241.3Z M279.9,241.0L279.9,241.0L279.8,240.9L279.9,241.0L279.9,241.0Z M267.5,240.9L267.4,240.9L267.4,240.8L267.5,240.9L267.5,240.9Z M137.2,238.4L137.2,238.5L137.2,238.4L137.2,238.4L137.2,238.4Z M337.3,106.0L337.2,106.0L337.2,105.9L337.3,106.0L337.3,106.0Z M131.6,98.0L131.6,98.0L131.6,98.0L131.6,98.0Z M301.5,97.3L301.4,97.3L301.4,97.3L301.5,97.3L301.5,97.3Z M301.4,97.3L301.4,97.3L301.3,97.3L301.4,97.3Z M128.7,96.7L128.9,96.7L128.8,96.8L128.7,96.7Z M291.9,91.5L292.0,91.7L291.9,91.7L291.8,91.6L291.9,91.5Z M183.1,79.5L183.1,79.6L183.1,79.6L183.0,79.5L183.1,79.5Z" fill="#1e3a8a" opacity="0.4" transform="translate(2,3)"/>
<path d="M220.8,230.1L208.6,232.1L197.7,238.2L199.7,242.4L204.2,245.4L204.1,247.4L193.4,250.3L187.3,247.9L183.8,237.6L180.6,236.9L179.1,232.1L169.2,222.8L159.4,221.1L155.9,218.5L159.1,207.1L158.5,201.1L163.4,196.6L153.9,186.8L165.0,179.7L162.7,176.7L165.7,169.4L165.4,164.9L157.5,164.1L155.4,159.1L153.8,158.8L147.4,162.8L144.8,161.1L137.9,165.4L130.4,156.3L130.2,152.4L125.7,148.0L126.9,145.5L123.3,145.6L122.2,142.7L134.5,137.1L136.7,131.1L140.7,130.3L145.5,132.6L144.4,131.3L148.9,127.1L149.2,122.5L162.1,125.9L182.7,122.5L185.3,118.8L184.1,114.9L185.9,113.2L186.4,108.9L190.8,105.1L199.4,103.2L200.6,100.9L209.0,105.0L220.5,101.2L218.7,104.9L225.0,108.5L228.2,122.0L226.9,125.4L221.1,127.2L226.1,128.6L229.2,134.6L225.7,138.7L234.2,136.1L251.1,134.8L254.2,132.9L253.9,129.0L258.1,128.5L262.7,129.7L265.8,133.0L273.5,133.2L274.8,137.5L286.4,137.4L292.4,134.7L294.8,128.6L311.7,130.9L317.1,121.3L320.3,125.3L330.1,119.5L332.4,129.3L337.7,132.7L345.8,134.2L344.6,137.2L337.5,136.8L335.4,140.4L340.2,141.4L335.4,146.1L335.1,163.4L320.5,167.9L315.6,167.6L315.2,175.1L309.0,180.5L293.8,181.0L287.6,189.8L285.5,185.4L278.9,187.1L275.3,194.2L267.0,198.1L265.5,201.4L255.5,201.7L254.7,206.0L250.7,209.5L245.4,209.9L246.1,215.2L244.1,219.4L236.7,220.1L236.8,222.0L232.3,225.0L220.8,230.1Z" fill="#facc15" opacity="0.93" filter="url(#sh)"/>
<path d="M317.1,121.3L311.7,130.9L294.8,128.6L292.0,135.3L286.4,137.4L274.8,137.5L273.5,133.2L265.8,133.0L262.7,129.7L258.1,128.5L253.9,129.0L254.2,132.9L251.1,134.8L234.2,136.1L225.5,138.9L229.2,134.5L226.2,128.7L223.3,127.4L228.2,122.6L225.0,108.5L218.7,105.3L220.6,102.0L219.7,100.6L210.1,104.9L200.6,100.9L199.4,103.2L190.8,105.1L186.4,108.8L186.4,112.4L184.1,114.9L185.3,118.8L183.0,122.2L162.1,125.9L149.2,122.5L148.9,127.1L144.4,131.3L140.7,130.3L137.4,121.5L139.4,119.2L146.3,117.4L147.3,112.7L144.4,109.2L148.5,103.5L147.0,101.4L156.3,99.4L158.1,96.9L157.9,93.6L177.0,84.2L180.4,80.6L207.3,71.0L239.9,73.5L244.5,73.1L248.2,68.5L250.0,68.6L251.6,70.8L254.6,70.3L251.9,74.1L256.7,80.7L264.0,83.5L273.9,80.1L276.5,81.7L278.5,88.9L285.0,95.5L288.2,95.4L290.9,91.9L292.0,91.5L314.3,103.0L318.0,99.3L320.7,100.0L323.0,104.1L329.2,105.1L326.3,111.8L329.2,105.2L339.6,106.4L349.9,102.3L362.3,100.3L367.9,103.7L383.0,106.0L387.0,102.9L391.1,102.8L404.3,96.7L413.0,91.3L416.6,86.8L423.6,89.8L426.9,86.9L438.5,88.7L442.9,96.5L436.5,104.3L428.4,105.9L425.6,115.3L419.1,114.6L413.5,117.7L411.2,114.9L412.4,111.0L405.7,109.9L389.4,118.6L391.4,126.1L397.2,128.5L396.6,130.9L389.3,135.0L379.9,133.6L374.0,135.5L371.4,138.3L367.3,139.5L362.8,139.9L349.8,133.6L337.8,132.7L332.5,129.5L331.9,125.5L329.1,116.2L330.1,119.5L321.8,124.8L318.6,124.5L316.5,119.3L317.1,121.3Z M183.1,79.5L183.1,79.6L183.1,79.6L183.0,79.5L183.1,79.5Z M337.3,106.0L337.2,106.0L337.2,105.9L337.3,106.0L337.3,106.0Z M301.5,97.3L301.4,97.3L301.4,97.3L301.5,97.3L301.5,97.3Z M301.4,97.3L301.4,97.3L301.3,97.3L301.4,97.3Z M291.9,91.5L292.0,91.7L291.9,91.7L291.8,91.6L291.9,91.5Z" fill="#4ade80" opacity="0.93" filter="url(#sh)"/>
<path d="M113.1,260.5L112.7,260.7L113.0,260.3L113.1,260.5Z M115.5,260.2L115.9,259.6L116.2,259.9L115.5,260.2Z M113.4,259.9L113.4,259.9L113.6,259.8L113.5,260.0L113.4,259.9Z M113.4,259.6L113.3,259.6L113.3,259.6L113.4,259.6Z M112.1,259.5L110.9,260.3L111.8,258.8L112.1,259.5Z M112.5,259.3L112.6,259.2L112.7,259.3L112.5,259.3Z M112.8,259.3L112.7,259.3L112.8,259.2L112.8,259.3Z M109.3,259.1L109.3,259.0L109.9,259.1L109.1,259.3L109.3,259.1Z M112.6,259.0L112.6,259.0L112.7,258.9L112.7,259.0L112.6,259.0Z M112.7,259.0L112.7,259.0L112.7,259.0L112.7,258.9L112.7,259.0Z M118.9,258.8L118.9,258.7L118.9,258.7L118.9,258.8L118.9,258.8Z M118.0,258.8L117.9,258.7L118.0,258.7L118.0,258.8L118.0,258.8Z M117.9,258.7L118.0,258.6L117.9,258.7L117.9,258.7Z M110.7,258.3L110.6,258.2L110.7,258.2L110.7,258.3Z M107.8,257.8L107.8,257.6L107.9,257.6L107.8,257.8L107.8,257.8Z M105.6,257.4L105.5,257.3L106.0,257.2L105.6,257.4Z M106.0,257.1L106.1,257.0L106.2,257.0L106.2,257.1L106.0,257.1Z M212.1,260.3L212.2,260.2L212.2,260.0L212.3,260.3L212.1,260.3Z M216.4,259.0L216.4,259.1L216.3,259.0L216.4,259.0L216.4,259.0Z M119.2,258.5L118.1,258.7L120.0,257.8L119.2,258.5Z M132.5,258.5L132.4,258.0L132.6,258.0L132.6,258.4L132.5,258.5Z M119.9,258.1L119.9,258.1L119.9,258.0L119.9,258.1L119.9,258.1Z M217.9,258.3L218.1,258.1L218.5,257.7L218.5,258.2L217.9,258.3Z M132.3,257.8L132.4,257.7L132.5,257.7L132.4,257.8L132.3,257.8Z M119.7,257.7L119.6,257.7L119.6,257.5L119.7,257.6L119.7,257.7Z M119.7,257.5L119.5,257.4L119.8,257.3L119.7,257.5Z M134.4,256.8L134.1,256.6L134.2,256.4L134.4,256.7L134.4,256.8Z M125.7,255.7L125.7,255.6L125.8,255.6L125.8,255.7L125.7,255.7Z M136.3,249.5L136.1,249.5L136.2,249.4L136.3,249.5Z M164.5,243.4L164.6,243.4L164.6,243.4L164.5,243.4Z M185.1,240.1L186.0,246.2L189.9,249.8L204.1,247.4L204.2,245.4L199.7,242.4L197.7,238.2L208.7,232.1L220.0,230.5L237.1,220.9L244.2,219.6L246.1,215.2L245.2,210.1L251.7,209.0L255.1,205.4L255.8,201.5L265.5,201.4L267.0,198.1L275.5,194.0L279.2,186.7L282.9,185.1L285.9,185.8L287.6,189.8L286.7,191.0L290.0,187.3L292.4,183.8L293.3,181.2L308.0,180.9L305.7,185.2L312.2,185.5L320.3,190.0L316.8,202.7L311.2,210.1L311.5,212.7L316.5,215.6L316.4,218.4L305.4,221.4L300.9,225.1L298.2,220.3L288.7,228.6L286.4,233.6L292.4,237.9L289.2,248.2L290.6,253.6L293.1,256.1L285.3,257.0L284.8,264.1L280.5,265.7L279.4,270.1L275.6,268.0L275.3,266.1L273.0,266.3L274.6,263.6L269.5,254.6L272.8,249.9L280.1,245.0L280.4,239.1L275.6,234.3L269.9,239.6L266.6,239.5L264.0,241.3L264.5,242.4L265.5,240.6L268.1,241.3L264.1,246.0L260.3,245.2L258.3,246.9L258.5,244.8L256.0,242.4L254.2,241.9L253.8,242.5L257.9,246.2L247.5,240.9L248.3,240.0L240.8,238.2L231.2,245.4L223.2,256.7L220.8,254.0L216.2,259.8L215.2,257.9L212.9,260.1L210.7,259.1L202.4,259.7L200.7,261.9L197.4,260.8L193.6,263.7L180.7,256.6L173.9,246.9L156.1,238.2L140.0,235.8L136.8,238.7L137.2,245.3L134.3,251.4L135.7,253.4L132.5,257.4L132.6,255.3L127.3,254.0L125.1,256.2L120.2,256.7L114.1,260.0L113.1,257.9L111.6,258.2L112.7,257.6L105.7,256.8L103.2,254.5L105.0,250.0L111.3,244.4L114.1,234.7L110.6,231.2L106.7,233.6L106.8,227.2L111.4,218.9L110.1,213.1L118.7,207.3L126.6,205.8L128.9,199.5L150.3,183.4L163.3,196.1L158.5,200.9L159.1,207.1L155.9,218.5L159.1,221.0L169.2,222.8L179.1,232.1L180.6,236.9L185.1,240.1Z M137.2,238.4L137.2,238.5L137.2,238.4L137.2,238.4L137.2,238.4Z M219.7,255.7L219.7,255.6L219.8,255.5L219.8,255.6L219.7,255.7Z M256.8,243.7L256.7,243.6L256.8,243.7L256.8,243.7Z M256.6,243.6L256.5,243.5L256.5,243.5L256.6,243.5L256.6,243.6Z M255.0,243.3L255.0,243.3L254.9,243.3L254.9,243.3L255.0,243.3Z M255.0,243.2L255.0,243.1L255.0,243.1L255.0,243.2Z M255.0,243.0L255.1,243.0L255.1,243.0L255.0,243.0Z M255.0,242.4L255.0,242.4L254.9,242.4L255.0,242.4L255.0,242.4Z M264.7,241.7L264.7,241.6L264.7,241.6L264.7,241.7L264.7,241.7Z M265.0,241.7L265.1,241.5L265.1,241.5L265.1,241.7L265.0,241.7Z M266.9,241.3L267.0,241.2L267.0,241.2L267.0,241.3L266.9,241.3Z M279.9,241.0L279.9,241.0L279.8,240.9L279.9,241.0L279.9,241.0Z M267.5,240.9L267.4,240.9L267.4,240.8L267.5,240.9L267.5,240.9Z" fill="#34d399" opacity="0.93" filter="url(#sh)"/>
<path d="M40.7,195.1L40.7,195.1L40.6,195.2L40.7,195.1Z M40.6,194.8L40.7,194.8L40.6,194.9L40.6,194.8Z M31.3,194.0L31.4,193.9L31.4,194.0L31.4,194.1L31.3,194.0Z M31.1,193.7L31.2,193.6L31.3,193.8L31.1,193.7L31.1,193.7Z M31.5,193.6L31.7,193.5L31.6,193.7L31.5,193.6Z M39.8,193.6L39.8,193.5L39.9,193.6L39.9,193.6L39.8,193.6Z M25.5,190.6L25.5,190.4L25.6,190.7L25.5,190.6Z M37.5,189.3L37.5,189.4L37.4,189.4L37.4,189.3L37.5,189.3Z M31.8,188.2L31.9,188.4L31.7,188.5L31.6,188.3L31.8,188.2Z M40.2,187.9L40.4,188.0L40.2,188.2L40.2,187.9Z M32.0,187.9L32.1,187.7L32.1,187.9L32.0,187.9Z M31.6,187.5L31.7,187.6L31.6,187.6L31.6,187.5Z M31.6,187.3L31.6,187.4L31.6,187.4L31.6,187.3Z M32.0,187.3L32.0,187.1L32.1,187.6L32.0,187.3Z M40.2,187.3L40.3,187.2L40.4,187.3L40.2,187.4L40.2,187.3Z M32.2,187.1L32.2,187.2L32.2,187.3L32.1,187.1L32.2,187.1Z M32.7,187.0L32.8,187.0L32.7,187.0L32.7,187.0L32.7,187.0Z M39.8,186.8L39.9,186.9L39.8,187.0L39.8,186.8L39.8,186.8Z M40.4,186.8L40.5,186.7L40.6,186.9L40.4,186.9L40.4,186.8Z M40.1,186.6L40.2,186.6L40.2,186.6L40.2,186.7L40.1,186.6Z M28.1,186.6L28.1,186.4L28.2,186.6L28.2,186.7L28.1,186.6Z M29.7,186.1L30.0,186.0L30.1,186.4L29.7,186.3L29.7,186.1Z M29.6,186.0L29.7,186.1L29.6,186.3L29.6,186.0Z M28.5,185.8L29.4,185.3L29.3,186.2L28.5,185.8Z M39.6,185.5L39.8,185.4L40.0,185.8L39.7,186.0L39.6,185.5Z M38.8,184.0L37.9,184.6L38.0,182.4L38.8,183.0L38.8,184.0Z M33.5,179.0L33.6,179.1L33.6,179.1L33.5,179.1L33.5,179.0Z M33.3,178.7L33.4,178.9L33.2,178.9L33.3,178.7Z M38.6,178.3L38.8,178.4L38.8,178.5L38.6,178.3Z M38.4,178.3L38.5,178.2L38.3,178.4L38.4,178.3Z M38.3,177.4L38.7,177.7L38.6,177.9L38.3,177.8L38.3,177.4Z M38.3,177.0L38.3,177.1L38.2,177.2L38.2,177.1L38.3,177.0Z M38.9,176.4L38.9,176.4L38.9,176.5L38.9,176.5L38.9,176.4Z M40.7,170.6L40.9,170.2L41.2,170.4L41.2,170.8L40.7,170.6Z M40.7,170.0L40.7,169.9L40.8,170.0L40.7,170.0Z M40.6,167.5L40.5,168.0L40.4,168.0L40.4,167.6L40.6,167.5Z M40.3,167.5L40.3,167.7L40.2,167.9L40.1,167.6L40.3,167.5Z M56.0,240.4L56.0,240.3L56.2,240.5L56.0,240.4Z M53.4,233.6L53.5,233.6L53.5,233.6L53.5,233.7L53.4,233.6Z M58.2,233.1L57.1,233.0L56.6,232.2L58.0,232.8L58.2,233.1Z M51.5,232.6L51.6,232.5L51.6,232.7L51.5,232.6Z M50.7,232.3L50.7,232.3L50.8,232.3L50.8,232.3L50.7,232.3Z M55.4,232.2L55.5,232.0L55.5,232.4L55.4,232.2Z M50.9,232.1L51.3,231.6L51.4,231.8L50.9,232.2L50.9,232.1Z M50.3,231.9L50.4,231.9L50.4,231.9L50.3,231.9L50.3,231.9Z M54.9,231.7L54.9,231.8L54.8,231.9L54.8,231.7L54.9,231.7Z M50.8,230.4L50.9,230.4L50.9,230.6L50.7,230.5L50.8,230.4Z M51.0,229.2L51.1,229.2L51.1,229.4L50.9,229.4L51.0,229.2Z M51.6,229.2L51.7,229.2L51.8,229.3L51.6,229.2Z M52.2,227.8L52.2,227.8L52.3,227.8L52.3,227.9L52.2,227.8Z M55.5,227.6L55.7,227.6L55.6,227.7L55.5,227.6Z M55.1,226.9L54.9,226.5L55.3,226.7L55.1,226.9Z M54.7,226.5L54.8,226.4L54.9,226.4L54.9,226.5L54.7,226.5Z M55.1,223.0L55.0,223.1L54.9,223.1L55.0,222.9L55.1,223.0Z M54.1,221.4L54.2,221.5L54.1,221.7L54.0,221.6L54.1,221.4Z M56.1,218.9L56.2,218.8L56.2,218.9L56.1,218.9L56.1,218.9Z M50.3,214.1L50.3,214.0L50.3,214.1L50.3,214.1Z M49.2,212.6L49.3,212.4L49.8,213.2L49.2,212.6Z M45.7,211.1L45.8,211.1L45.8,211.2L45.7,211.1Z M45.9,211.1L46.1,211.1L46.0,211.1L45.9,211.1Z M46.1,209.9L46.2,209.8L46.2,209.9L46.1,209.9L46.1,209.9Z M42.6,199.3L42.7,199.2L42.8,199.3L42.7,199.3L42.6,199.3Z M46.0,198.5L46.1,198.6L46.0,198.6L46.0,198.5L46.0,198.5Z M42.0,198.5L42.0,198.6L42.0,198.5L42.0,198.5L42.0,198.5Z M45.0,185.8L45.0,185.8L45.0,186.0L44.9,186.0L45.0,185.8Z M43.7,185.7L43.7,185.6L43.8,185.7L43.7,185.7Z M41.8,182.8L42.0,182.9L42.0,182.9L41.8,182.8Z M42.2,182.8L42.2,182.9L42.1,182.9L42.1,182.8L42.2,182.8Z M41.1,182.5L41.3,182.7L41.3,182.9L40.9,182.5L41.1,182.5Z M52.3,202.8L52.0,200.6L45.3,197.6L42.2,199.1L41.2,194.9L39.5,192.9L36.4,193.3L35.3,196.7L30.2,191.6L26.1,191.4L27.9,189.7L27.5,187.9L29.8,190.1L32.5,187.9L32.3,187.1L31.7,186.2L33.4,186.2L30.2,185.7L29.2,179.5L30.8,178.1L36.1,182.9L35.1,186.3L37.4,190.0L38.1,189.7L38.2,186.0L39.7,188.2L40.8,188.6L50.0,185.8L44.4,186.1L38.6,179.1L39.4,178.6L39.1,176.2L43.0,176.4L44.1,175.4L43.0,173.5L44.9,174.2L47.4,171.8L46.8,169.8L40.6,169.5L40.6,166.9L42.8,165.5L39.7,162.3L50.2,154.4L68.5,156.4L68.5,160.3L71.5,161.1L75.1,166.5L88.1,162.6L88.0,160.4L93.7,156.1L95.7,149.0L102.5,150.0L108.2,138.2L113.9,138.8L115.1,144.1L126.9,145.5L125.7,147.9L130.2,152.4L130.3,156.1L137.8,165.4L144.8,161.1L147.4,162.8L153.8,158.8L155.4,159.1L157.5,164.1L165.4,164.9L165.7,169.4L162.7,176.7L165.0,179.7L154.3,186.3L149.9,183.5L142.6,190.7L128.9,199.5L126.4,206.0L118.2,207.7L110.1,213.1L111.4,218.9L107.2,226.0L106.8,233.7L110.6,231.2L112.6,232.2L113.8,236.1L111.3,244.4L104.9,250.1L103.4,254.5L99.3,251.7L99.9,246.8L96.9,246.7L99.3,242.6L94.9,239.9L92.7,245.3L91.3,242.2L86.9,241.6L86.2,238.0L83.0,238.1L82.8,235.9L80.9,237.0L82.1,237.3L81.3,239.0L78.5,238.8L79.2,237.6L77.8,237.0L78.9,240.7L71.8,246.2L70.1,244.9L73.6,243.4L72.2,241.9L70.3,242.2L74.5,240.9L73.3,240.3L74.2,238.4L72.5,239.8L69.4,240.4L64.3,239.7L63.0,243.1L54.9,242.2L62.0,238.1L72.0,238.9L72.8,237.8L71.2,237.4L72.7,236.0L71.7,234.5L75.5,235.1L75.2,233.8L76.4,233.6L76.7,232.1L79.6,231.0L69.3,231.1L60.3,232.3L60.1,232.9L56.5,230.9L53.4,233.4L52.4,233.2L52.2,227.9L53.6,228.4L55.0,227.0L55.5,228.2L57.7,229.5L60.5,227.7L59.1,225.8L61.4,226.0L61.3,223.1L59.9,223.2L58.7,224.8L58.9,223.2L57.3,223.9L57.9,221.0L55.5,221.5L56.7,219.8L56.3,218.6L54.1,221.1L50.6,220.7L51.5,216.9L50.3,216.9L49.8,213.3L51.2,213.1L45.8,210.9L51.5,208.9L52.3,202.8Z M42.5,172.6L42.7,172.5L42.8,172.8L42.5,172.8L42.5,172.6Z M42.9,172.2L43.0,172.2L42.9,172.3L42.9,172.2Z M46.7,171.6L46.7,171.6L46.7,171.5L46.7,171.6L46.7,171.6Z M41.5,170.8L41.6,171.0L41.6,171.1L41.4,171.0L41.5,170.8Z M72.1,246.3L72.1,246.2L72.1,246.3L72.1,246.4L72.1,246.3Z M72.1,246.1L72.2,246.1L72.1,246.2L72.1,246.1Z M72.6,244.3L72.7,244.4L72.5,244.5L72.6,244.3Z M72.5,244.1L72.5,244.0L72.6,244.2L72.5,244.1Z M72.4,243.4L72.6,243.3L72.7,243.4L72.4,243.4Z M58.6,243.0L58.7,243.0L58.7,243.2L58.6,243.0Z M71.9,243.0L72.1,242.6L72.4,243.1L72.2,243.3L71.9,243.0Z M71.5,242.7L71.5,242.8L71.5,242.8L71.5,242.7L71.5,242.7Z M72.3,242.6L72.2,242.7L72.2,242.7L72.2,242.6L72.3,242.6Z M72.3,242.3L72.3,242.3L72.3,242.2L72.3,242.2L72.3,242.3Z M70.9,241.6L70.9,241.5L70.9,241.6L70.9,241.6Z M71.0,241.4L71.1,241.4L71.1,241.4L71.1,241.5L71.0,241.4Z M71.2,241.1L71.3,241.1L71.3,241.3L71.2,241.1Z M71.6,241.0L72.0,240.9L71.6,241.3L71.6,241.0Z M70.2,240.1L70.2,240.0L70.3,240.0L70.3,240.1L70.2,240.1Z M65.8,240.0L65.9,240.0L65.9,240.0L65.8,240.1L65.8,240.0Z M65.2,240.0L65.1,240.0L65.0,240.1L65.1,240.0L65.2,240.0Z M65.5,239.9L65.5,240.0L65.4,240.0L65.4,239.9L65.5,239.9Z M66.2,239.8L66.3,239.8L66.3,239.8L66.2,239.9L66.2,239.8Z M72.0,239.8L72.1,239.7L72.1,239.7L72.1,239.8L72.0,239.8Z M57.6,239.5L57.6,239.4L57.7,239.5L57.6,239.5Z M57.4,239.4L57.4,239.3L57.5,239.4L57.4,239.4Z M71.6,236.3L71.9,236.3L71.9,236.4L71.6,236.3L71.6,236.3Z M72.1,236.2L72.1,236.2L72.0,236.3L72.1,236.2Z M72.3,236.1L72.3,236.0L72.3,236.0L72.3,236.1L72.3,236.1Z M72.1,235.7L72.1,235.8L72.1,235.8L72.0,235.8L72.1,235.7Z M60.7,232.7L61.0,232.9L61.0,233.1L60.8,233.1L60.7,232.7Z M60.5,232.8L60.5,232.8L60.4,232.8L60.5,232.8L60.5,232.8Z M62.4,232.7L62.4,232.7L62.4,232.8L62.4,232.7Z M57.6,228.2L57.8,228.1L57.7,228.3L57.6,228.2Z M58.0,227.9L57.9,228.1L57.9,228.1L57.9,227.9L58.0,227.9Z M59.3,226.8L59.2,227.5L58.2,227.5L58.3,227.0L59.3,226.8Z M58.9,225.8L59.0,225.7L59.0,225.8L58.9,225.8Z M59.7,225.7L59.7,225.6L59.8,225.7L59.7,225.7Z M59.7,224.0L59.7,223.9L60.1,224.2L59.7,224.0Z M60.0,223.9L60.0,223.9L60.0,223.9L59.9,223.9L60.0,223.9Z M98.2,246.8L98.2,246.8L98.2,246.8L98.2,246.9L98.2,246.8Z M98.3,246.3L98.5,246.3L98.6,246.4L98.3,246.4L98.3,246.3Z M74.3,244.9L74.4,244.9L74.5,245.0L74.3,245.0L74.3,244.9Z M90.6,244.0L90.7,244.0L90.7,244.1L90.6,244.1L90.6,244.0Z M99.2,243.2L99.4,243.2L99.2,243.4L99.2,243.2Z M97.7,242.9L97.9,242.8L98.1,243.0L97.8,243.2L97.7,242.9Z M93.8,242.8L94.3,242.8L94.3,243.3L93.8,242.8Z M94.6,242.3L95.1,242.5L94.5,243.2L94.4,242.6L94.6,242.3Z M97.4,242.6L97.6,242.7L97.6,242.8L97.4,242.7L97.4,242.6Z M88.8,241.9L89.0,241.9L89.0,241.9L88.8,242.0L88.8,241.9Z M94.9,241.8L95.0,241.8L95.0,241.9L94.9,241.9L94.9,241.8Z M96.8,241.9L96.8,241.7L97.0,241.8L97.0,241.9L96.8,241.9Z M94.7,241.7L94.8,241.7L94.9,241.8L94.8,241.9L94.7,241.7Z M95.0,241.5L95.0,241.6L94.9,241.7L95.0,241.5Z M94.9,241.4L95.0,241.3L95.0,241.4L94.9,241.4Z M77.4,241.2L77.5,241.2L77.5,241.3L77.4,241.2Z M95.1,240.5L95.4,240.9L95.1,241.1L95.0,240.9L95.1,240.5Z M72.8,240.6L72.7,240.9L72.3,240.9L72.5,240.6L72.8,240.6Z M72.6,239.7L72.7,239.7L72.7,239.8L72.6,239.8L72.6,239.7Z M74.4,239.7L74.3,239.7L74.4,239.7L74.4,239.8L74.4,239.7Z M82.3,239.2L82.5,239.4L82.2,239.4L82.3,239.2Z M86.4,238.6L86.5,238.6L86.4,238.6L86.4,238.6Z M77.6,238.3L77.8,238.2L77.8,238.6L77.4,238.2L77.6,238.3Z M78.3,237.8L78.5,237.8L78.5,237.9L78.3,237.8Z M82.5,236.5L82.5,236.4L82.6,236.5L82.5,236.5Z M75.2,234.1L75.2,234.2L75.1,234.2L75.1,234.1L75.2,234.1Z M75.1,233.9L75.1,233.8L75.2,233.8L75.2,233.9L75.1,233.9Z M76.1,233.3L76.2,233.2L76.3,233.4L76.0,233.4L76.1,233.3Z M76.3,232.3L76.4,232.2L76.5,232.4L76.3,232.4L76.3,232.3Z M76.5,232.1L76.5,232.2L76.4,232.1L76.4,232.1L76.5,232.1Z M77.3,232.0L77.3,232.0L77.2,232.0L77.2,232.0L77.3,232.0Z" fill="#c084fc" opacity="0.93" filter="url(#sh)"/>
<path d="M34.9,159.0L35.3,158.2L35.5,158.2L35.6,158.8L34.9,159.0Z M33.6,157.6L33.7,157.6L33.6,157.6L33.6,157.6Z M36.9,157.5L36.9,157.5L37.0,157.5L37.0,157.5L36.9,157.5Z M33.7,157.5L33.8,157.2L34.1,157.5L33.7,157.5Z M35.4,157.1L35.7,156.9L35.8,157.2L35.4,157.1Z M34.8,157.2L34.8,156.9L34.9,156.8L35.0,157.0L34.8,157.2Z M37.6,156.8L37.9,156.7L38.0,156.9L37.6,156.8Z M35.1,156.9L35.4,156.7L35.5,156.8L35.1,156.9Z M37.1,156.6L37.2,156.6L37.3,156.5L37.3,156.6L37.1,156.6Z M36.1,156.5L35.5,155.5L37.3,155.4L36.1,156.0L37.8,157.2L36.1,156.5Z M37.9,156.1L37.9,156.0L38.0,155.9L38.0,156.0L37.9,156.1Z M38.1,155.9L38.1,155.7L38.2,155.6L38.3,155.9L38.1,155.9Z M34.7,155.8L34.7,155.6L34.8,155.5L34.9,155.7L34.7,155.8Z M35.2,156.1L34.9,155.4L35.6,155.2L35.2,156.1Z M22.1,141.1L21.8,142.6L19.2,141.0L21.6,140.7L22.1,141.1Z M22.3,138.4L22.4,138.4L22.4,138.4L22.3,138.4Z M21.5,138.1L21.5,138.0L21.6,138.1L21.5,138.1Z M22.1,137.9L22.2,137.8L21.8,137.7L22.1,137.9Z M13.5,132.9L11.8,130.9L14.7,129.1L18.8,128.1L19.3,131.0L20.5,130.6L20.0,131.6L13.5,132.9Z M36.5,122.9L29.3,129.3L29.9,131.2L24.5,134.3L27.3,128.9L25.8,125.6L41.5,117.2L41.1,115.0L39.6,113.6L40.4,114.7L33.8,116.8L23.4,116.8L21.0,112.3L29.2,105.2L28.6,95.6L36.4,92.3L35.4,84.0L28.9,79.4L29.8,77.0L34.1,76.7L36.1,72.4L45.0,72.2L46.4,69.0L52.2,68.2L59.7,74.8L63.3,72.5L66.1,73.7L67.4,71.7L72.0,72.0L72.7,75.4L70.4,76.0L75.7,86.7L99.5,96.1L97.6,98.7L97.5,102.1L95.2,101.6L96.3,103.6L92.2,105.2L74.3,101.8L72.6,98.9L74.3,101.8L70.3,104.8L65.2,103.3L58.7,104.5L53.6,113.3L36.5,122.9Z M21.0,111.8L21.0,111.7L21.0,111.6L21.0,111.7L21.0,111.8Z M20.9,111.0L20.9,111.1L20.5,110.5L20.8,110.8L20.9,111.0Z M39.6,155.9L39.6,155.8L39.8,155.7L39.8,155.9L39.6,155.9Z M38.7,155.8L38.7,155.8L38.7,155.7L38.7,155.8L38.7,155.8Z M38.2,154.9L38.2,154.8L38.4,154.7L38.3,154.9L38.2,154.9Z M71.3,121.7L68.6,123.3L98.1,124.2L100.6,122.2L91.4,118.1L109.8,112.0L111.0,113.8L120.6,112.7L103.2,110.0L103.4,108.8L103.8,109.0L105.1,108.1L105.6,107.2L103.3,108.4L96.8,103.4L100.9,96.5L118.7,99.1L119.1,100.6L118.7,99.2L126.1,99.3L129.1,96.9L148.6,103.2L144.4,109.0L147.3,112.7L146.2,117.6L139.4,119.2L137.3,121.7L140.7,130.3L136.7,131.1L134.0,137.4L123.7,140.8L122.2,143.1L123.3,145.6L120.9,146.0L115.1,144.1L114.1,139.1L107.2,138.7L102.4,150.1L95.7,149.0L93.7,156.1L88.0,160.4L88.1,162.6L75.4,166.5L71.1,160.8L68.5,160.3L68.5,156.4L50.2,154.4L40.2,162.4L38.5,159.6L35.7,159.2L36.8,157.5L37.3,158.9L37.1,158.1L42.1,152.6L43.9,152.3L43.7,149.2L21.8,152.6L24.4,146.7L24.7,136.2L28.7,134.9L30.5,129.5L33.6,128.8L39.4,122.9L46.5,123.3L53.0,120.6L53.6,123.9L60.5,125.8L60.4,127.1L60.7,125.6L65.1,126.0L68.1,123.8L63.2,119.7L67.9,119.2L72.0,120.4L71.3,121.7Z M65.6,123.8L65.6,123.8L65.8,123.7L65.8,123.8L65.6,123.8Z M38.2,123.5L38.2,123.4L38.4,123.3L38.4,123.6L38.2,123.5Z M62.4,121.5L62.3,121.3L62.6,120.8L62.7,121.5L62.4,121.5Z M72.8,121.1L73.1,121.0L73.2,121.3L72.8,121.1Z M60.0,120.8L60.1,120.7L60.1,120.8L60.1,120.9L60.0,120.8Z M60.5,120.3L61.5,119.4L62.2,121.3L60.4,121.0L60.5,120.3Z M58.9,118.5L59.8,119.1L58.2,120.8L57.9,120.0L58.9,118.5Z M60.5,119.9L60.3,119.8L60.6,118.9L60.6,119.6L60.5,119.9Z M63.8,119.0L63.7,119.0L63.8,118.9L63.8,119.0L63.8,119.0Z M57.5,118.5L57.6,118.2L58.6,118.2L57.5,118.5Z M38.8,116.1L39.0,115.9L39.1,116.1L38.8,116.1Z M39.4,116.0L39.5,115.8L39.5,115.9L39.4,116.0Z M64.7,115.5L61.2,117.4L59.2,116.7L61.9,114.4L64.7,115.5Z M65.0,115.5L65.0,115.5L65.1,115.5L65.0,115.5L65.0,115.5Z M58.1,115.4L57.9,115.2L58.1,115.0L58.2,115.1L58.1,115.4Z M62.9,114.7L62.9,114.6L63.0,114.5L63.0,114.6L62.9,114.7Z M73.5,121.2L73.5,121.2L73.6,121.4L73.4,121.3L73.5,121.2Z M73.7,120.9L73.7,120.7L73.9,120.8L73.9,120.8L73.7,120.9Z M84.9,117.6L85.1,118.9L84.6,119.4L84.4,117.7L84.9,117.6Z M99.5,109.5L99.6,109.5L99.6,109.6L99.5,109.5Z M100.5,108.7L100.3,108.5L100.3,108.3L100.5,108.5L100.5,108.7Z M99.6,108.9L99.4,108.2L100.2,107.9L99.6,108.9Z M96.5,108.1L96.4,108.0L96.6,108.0L96.6,108.1L96.5,108.1Z M95.9,107.8L96.0,107.7L96.0,107.8L95.9,107.8Z M98.6,108.0L99.1,107.4L99.3,107.8L98.6,108.0Z M98.5,107.6L98.0,107.7L98.2,107.3L98.5,107.6Z M98.6,107.5L98.6,107.4L98.7,107.4L98.7,107.4L98.6,107.5Z M97.8,106.9L97.7,106.5L98.0,106.4L98.1,106.7L97.8,106.9Z M131.6,98.0L131.6,98.0L131.6,98.0L131.6,98.0Z M128.7,96.7L128.9,96.7L128.8,96.8L128.7,96.7Z" fill="#fb923c" opacity="0.93" filter="url(#sh)"/>
<path d="M373.6,184.0L370.3,188.1L358.4,188.2L350.8,190.1L354.6,189.1L355.2,190.8L354.7,193.6L351.7,196.2L342.8,197.0L340.5,196.0L342.3,193.6L338.1,193.0L329.5,197.1L330.7,202.6L314.8,206.1L320.3,190.0L305.6,184.2L315.2,175.1L315.6,167.6L336.6,164.1L335.1,163.4L335.4,146.0L340.2,141.4L335.5,141.0L337.5,136.8L344.6,137.2L345.8,134.2L349.8,133.8L363.6,139.9L370.7,138.6L380.2,133.6L389.4,135.0L397.4,129.4L392.2,127.3L389.8,118.6L405.7,109.9L412.4,111.0L411.2,114.9L413.5,117.7L419.4,114.5L425.8,115.1L428.4,105.9L436.5,104.3L442.3,97.8L440.1,89.6L442.9,85.6L449.4,85.0L448.7,87.9L450.9,87.6L458.7,94.1L456.7,95.6L459.3,98.1L464.7,98.0L465.6,102.8L470.8,106.0L472.7,114.0L467.5,120.5L470.9,127.5L469.1,129.4L471.8,130.5L470.3,132.3L476.6,135.2L486.3,134.3L491.4,136.9L499.8,146.2L500.0,147.8L495.0,143.0L491.7,145.6L489.9,154.7L479.9,156.0L481.9,161.4L484.6,163.4L482.9,164.9L484.6,167.0L483.7,168.1L487.1,173.2L487.2,187.6L492.0,189.5L489.5,191.9L489.4,195.3L485.1,203.6L489.7,204.7L490.9,207.4L493.7,207.5L494.6,207.9L494.4,217.8L500.0,222.2L499.6,227.3L495.3,226.1L488.0,230.5L487.2,233.1L484.2,228.9L486.2,224.5L482.7,221.9L479.9,221.6L476.4,224.5L466.3,223.5L464.7,221.4L466.2,208.9L454.8,207.5L453.2,206.1L454.6,202.0L452.4,198.3L446.9,199.6L433.4,193.0L428.7,195.8L419.8,193.7L418.7,183.8L412.9,183.1L412.2,179.6L409.0,175.9L400.3,181.0L390.5,180.3L388.4,184.6L384.5,184.7L378.5,184.7L373.6,184.0Z" fill="#60a5fa" opacity="0.93" filter="url(#sh)"/>
<path d="M303.7,243.0L302.9,244.2L301.3,243.0L302.0,240.9L299.2,239.1L291.1,237.2L286.4,233.6L288.9,228.4L298.0,220.3L300.9,225.1L305.4,221.4L315.8,219.3L316.5,215.6L311.2,212.3L311.4,209.5L315.8,205.6L330.7,202.6L329.5,197.1L336.3,193.6L342.3,193.6L340.5,196.0L342.8,197.0L351.7,196.2L354.4,194.1L354.6,189.1L370.3,188.1L373.6,184.0L388.3,184.7L390.5,180.3L400.3,181.0L409.4,176.7L413.6,184.1L418.7,183.7L419.9,188.8L419.1,196.7L419.8,193.7L428.7,195.8L433.4,193.0L446.6,199.6L452.4,198.3L454.6,202.0L453.2,206.1L454.9,207.6L466.2,208.7L464.6,220.9L466.3,223.5L457.8,220.1L452.9,221.9L448.4,220.0L443.2,227.3L437.3,228.6L437.2,224.8L434.0,221.9L429.5,226.0L416.8,229.3L397.0,228.2L373.1,239.9L357.4,242.8L344.8,241.5L340.5,237.2L331.1,235.1L313.0,243.6L303.7,243.0Z" fill="#f87171" opacity="0.93" filter="url(#sh)"/>
<path d="M31.4,194.1L31.3,194.0L31.4,193.9L31.4,194.0L31.4,194.1Z M31.1,193.7L31.2,193.6L31.3,193.8L31.1,193.7L31.1,193.7Z M31.5,193.6L31.7,193.5L31.6,193.7L31.5,193.6Z M25.5,190.6L25.5,190.4L25.6,190.7L25.5,190.6Z M37.5,189.3L37.5,189.4L37.4,189.4L37.4,189.3L37.5,189.3Z M31.8,188.2L31.9,188.4L31.7,188.5L31.6,188.3L31.8,188.2Z M32.0,187.9L32.1,187.7L32.1,187.9L32.0,187.9Z M31.6,187.5L31.7,187.6L31.6,187.6L31.6,187.5Z M31.6,187.3L31.6,187.4L31.6,187.4L31.6,187.3Z M32.0,187.3L32.0,187.1L32.1,187.6L32.0,187.3Z M32.2,187.1L32.2,187.2L32.2,187.3L32.1,187.1L32.2,187.1Z M32.7,187.0L32.8,187.0L32.7,187.0L32.7,187.0L32.7,187.0Z M28.1,186.6L28.1,186.4L28.2,186.6L28.2,186.7L28.1,186.6Z M29.7,186.1L30.0,186.0L30.1,186.4L29.7,186.3L29.7,186.1Z M29.6,186.0L29.7,186.1L29.6,186.3L29.6,186.0Z M28.5,185.8L29.4,185.3L29.3,186.2L28.5,185.8Z M39.1,185.3L37.9,184.6L38.0,182.4L38.8,183.0L39.1,185.3Z M33.5,179.0L33.6,179.1L33.6,179.1L33.5,179.1L33.5,179.0Z M33.3,178.7L33.4,178.9L33.2,178.9L33.3,178.7Z M38.6,178.3L38.8,178.4L38.8,178.5L38.6,178.3Z M38.4,178.3L38.5,178.2L38.3,178.4L38.4,178.3Z M38.3,177.4L38.7,177.7L38.6,177.9L38.3,177.8L38.3,177.4Z M38.3,177.0L38.3,177.1L38.2,177.2L38.2,177.1L38.3,177.0Z M38.9,176.4L38.9,176.4L38.9,176.5L38.9,176.5L38.9,176.4Z M34.9,159.0L35.3,158.2L35.5,158.2L35.6,158.8L34.9,159.0Z M33.6,157.6L33.7,157.6L33.6,157.6L33.6,157.6Z M36.9,157.5L36.9,157.5L37.0,157.5L37.0,157.5L36.9,157.5Z M33.7,157.5L33.8,157.2L34.1,157.5L33.7,157.5Z M35.4,157.1L35.7,156.9L35.8,157.2L35.4,157.1Z M34.8,157.2L34.8,156.9L34.9,156.8L35.0,157.0L34.8,157.2Z M37.6,156.8L37.9,156.7L38.0,156.9L37.6,156.8Z M35.5,156.8L35.1,156.9L35.1,156.7L35.4,156.7L35.5,156.8Z M37.1,156.6L37.2,156.6L37.3,156.5L37.3,156.6L37.1,156.6Z M35.7,156.6L35.9,155.2L37.3,155.4L36.1,156.0L37.8,157.2L35.7,156.6Z M37.9,156.1L37.9,156.0L38.0,155.9L38.0,156.0L37.9,156.1Z M38.7,155.8L38.7,155.8L38.7,155.7L38.7,155.8L38.7,155.8Z M38.1,155.9L38.1,155.7L38.2,155.6L38.3,155.9L38.1,155.9Z M34.7,155.8L34.7,155.6L34.8,155.5L34.9,155.7L34.7,155.8Z M35.2,156.1L34.9,155.4L35.6,155.2L35.2,156.1Z M38.2,154.9L38.2,154.8L38.4,154.7L38.3,154.9L38.2,154.9Z M19.2,141.0L21.6,140.7L22.3,142.2L21.8,142.6L19.2,141.0Z M22.3,138.4L22.4,138.4L22.4,138.4L22.3,138.4Z M21.5,138.1L21.5,138.0L21.6,138.1L21.5,138.1Z M21.9,138.0L21.8,137.7L22.2,137.8L21.9,138.0Z M19.9,131.2L13.5,132.9L11.7,131.8L18.8,128.1L19.9,131.2Z M38.2,123.5L38.2,123.4L38.4,123.3L38.4,123.6L38.2,123.5Z M38.8,116.1L39.0,115.9L39.1,116.1L38.8,116.1Z M39.4,116.0L39.5,115.8L39.5,115.9L39.4,116.0Z M21.0,111.8L21.0,111.7L21.0,111.6L21.0,111.7L21.0,111.8Z M20.9,111.0L20.9,111.1L20.5,110.5L20.8,110.8L20.9,111.0Z M56.0,240.4L56.0,240.3L56.2,240.5L56.0,240.4Z M53.4,233.6L53.5,233.6L53.5,233.6L53.5,233.7L53.4,233.6Z M56.6,232.2L58.0,232.8L58.2,233.1L57.1,233.0L56.6,232.2Z M51.5,232.6L51.6,232.5L51.6,232.7L51.5,232.6Z M50.7,232.3L50.7,232.3L50.8,232.3L50.8,232.3L50.7,232.3Z M55.4,232.2L55.5,232.0L55.5,232.4L55.4,232.2Z M50.9,232.1L51.3,231.6L51.4,231.8L50.9,232.2L50.9,232.1Z M50.3,231.9L50.4,231.9L50.4,231.9L50.3,231.9L50.3,231.9Z M54.9,231.7L54.9,231.8L54.8,231.9L54.8,231.7L54.9,231.7Z M50.8,230.4L50.9,230.4L50.9,230.6L50.7,230.5L50.8,230.4Z M51.0,229.2L51.1,229.2L51.1,229.4L50.9,229.4L51.0,229.2Z M51.6,229.2L51.7,229.2L51.8,229.3L51.6,229.2Z M52.3,227.9L52.2,227.8L52.2,227.8L52.3,227.8L52.3,227.9Z M55.5,227.6L55.7,227.6L55.6,227.7L55.5,227.6Z M55.1,226.9L54.9,226.5L55.3,226.7L55.1,226.9Z M54.7,226.5L54.8,226.4L54.9,226.4L54.9,226.5L54.7,226.5Z M55.1,223.0L55.0,223.1L54.9,223.1L55.0,222.9L55.1,223.0Z M54.1,221.4L54.2,221.5L54.1,221.7L54.0,221.6L54.1,221.4Z M56.1,218.9L56.2,218.8L56.2,218.9L56.1,218.9L56.1,218.9Z M50.3,214.1L50.3,214.0L50.3,214.1L50.3,214.1Z M49.2,212.6L49.3,212.4L49.8,213.2L49.2,212.6Z M45.7,211.1L45.8,211.1L45.8,211.2L45.7,211.1Z M45.9,211.1L46.1,211.1L46.0,211.1L45.9,211.1Z M46.1,209.9L46.2,209.8L46.2,209.9L46.1,209.9L46.1,209.9Z M42.6,199.3L42.7,199.2L42.8,199.3L42.7,199.3L42.6,199.3Z M46.0,198.5L46.1,198.6L46.0,198.6L46.0,198.5L46.0,198.5Z M42.0,198.5L42.0,198.6L42.0,198.5L42.0,198.5L42.0,198.5Z M40.7,195.1L40.7,195.1L40.6,195.2L40.7,195.1Z M40.6,194.8L40.7,194.8L40.6,194.9L40.6,194.8Z M39.8,193.6L39.8,193.5L39.9,193.6L39.9,193.6L39.8,193.6Z M40.2,187.9L40.4,188.0L40.2,188.2L40.2,187.9Z M40.2,187.3L40.3,187.2L40.4,187.3L40.2,187.4L40.2,187.3Z M39.8,186.8L39.9,186.9L39.8,187.0L39.8,186.8L39.8,186.8Z M40.4,186.8L40.5,186.7L40.6,186.9L40.4,186.9L40.4,186.8Z M40.1,186.6L40.2,186.6L40.2,186.6L40.2,186.7L40.1,186.6Z M45.0,185.8L45.0,185.8L45.0,186.0L44.9,186.0L45.0,185.8Z M39.6,185.5L39.8,185.4L40.0,185.8L39.7,186.0L39.6,185.5Z M43.7,185.7L43.7,185.6L43.8,185.7L43.7,185.7Z M41.8,182.8L42.0,182.9L42.0,182.9L41.8,182.8Z M42.1,182.9L42.1,182.8L42.2,182.9L42.1,182.9Z M41.1,182.5L41.3,182.7L41.3,182.9L40.9,182.5L41.1,182.5Z M42.5,172.6L42.7,172.5L42.8,172.8L42.5,172.8L42.5,172.6Z M42.9,172.2L43.0,172.2L42.9,172.3L42.9,172.2Z M46.7,171.6L46.7,171.6L46.7,171.5L46.7,171.6L46.7,171.6Z M41.5,170.8L41.6,171.0L41.6,171.1L41.4,171.0L41.5,170.8Z M40.7,170.6L40.9,170.2L41.2,170.4L41.2,170.8L40.7,170.6Z M40.7,170.0L40.7,169.9L40.8,170.0L40.7,170.0Z M40.6,167.5L40.5,168.0L40.4,168.0L40.4,167.6L40.6,167.5Z M40.3,167.5L40.3,167.7L40.2,167.9L40.1,167.6L40.3,167.5Z M39.6,155.9L39.6,155.8L39.8,155.7L39.8,155.9L39.6,155.9Z M72.1,246.3L72.1,246.2L72.1,246.3L72.1,246.4L72.1,246.3Z M72.1,246.1L72.2,246.1L72.1,246.2L72.1,246.1Z M72.6,244.3L72.7,244.4L72.5,244.5L72.6,244.3Z M72.5,244.1L72.5,244.0L72.6,244.2L72.5,244.1Z M72.4,243.4L72.6,243.3L72.7,243.4L72.4,243.4Z M58.6,243.0L58.7,243.0L58.7,243.2L58.6,243.0Z M71.9,243.0L72.1,242.6L72.4,243.1L72.2,243.3L71.9,243.0Z M71.5,242.7L71.5,242.8L71.5,242.8L71.5,242.7L71.5,242.7Z M72.3,242.6L72.2,242.7L72.2,242.7L72.2,242.6L72.3,242.6Z M72.3,242.3L72.3,242.3L72.3,242.2L72.3,242.2L72.3,242.3Z M70.9,241.6L70.9,241.5L70.9,241.6L70.9,241.6Z M71.0,241.4L71.1,241.4L71.1,241.4L71.1,241.5L71.0,241.4Z M71.2,241.1L71.3,241.1L71.3,241.3L71.2,241.1Z M71.6,241.0L72.0,240.9L71.6,241.3L71.6,241.0Z M72.7,240.9L72.3,240.9L72.5,240.6L72.7,240.9Z M70.2,240.1L70.2,240.0L70.3,240.0L70.3,240.1L70.2,240.1Z M65.8,240.0L65.9,240.0L65.9,240.0L65.8,240.1L65.8,240.0Z M65.2,240.0L65.1,240.0L65.0,240.1L65.1,240.0L65.2,240.0Z M65.5,239.9L65.5,240.0L65.4,240.0L65.4,239.9L65.5,239.9Z M66.2,239.8L66.3,239.8L66.3,239.8L66.2,239.9L66.2,239.8Z M72.0,239.8L72.1,239.7L72.1,239.7L72.1,239.8L72.0,239.8Z M57.6,239.5L57.6,239.4L57.7,239.5L57.6,239.5Z M57.4,239.4L57.4,239.3L57.5,239.4L57.4,239.4Z M71.6,236.3L71.9,236.3L71.9,236.4L71.6,236.3L71.6,236.3Z M72.1,236.2L72.1,236.2L72.0,236.3L72.1,236.2Z M72.3,236.1L72.3,236.1L72.3,236.0L72.3,236.0L72.3,236.1Z M72.1,235.7L72.1,235.8L72.1,235.8L72.0,235.8L72.1,235.7Z M60.7,232.7L61.0,232.9L61.0,233.1L60.8,233.1L60.7,232.7Z M60.5,232.8L60.5,232.8L60.4,232.8L60.5,232.8L60.5,232.8Z M62.4,232.7L62.4,232.7L62.4,232.8L62.4,232.7Z M57.6,228.2L57.8,228.1L57.7,228.3L57.6,228.2Z M58.0,227.9L57.9,228.1L57.9,228.1L57.9,227.9L58.0,227.9Z M59.3,226.8L59.2,227.5L58.2,227.5L58.3,227.0L59.3,226.8Z M58.9,225.8L59.0,225.7L59.0,225.8L58.9,225.8Z M59.7,225.7L59.7,225.6L59.8,225.7L59.7,225.7Z M59.7,224.0L59.7,223.9L60.1,224.2L59.7,224.0Z M60.0,223.9L60.0,223.9L60.0,223.9L59.9,223.9L60.0,223.9Z M65.6,123.8L65.6,123.8L65.8,123.7L65.8,123.8L65.6,123.8Z M62.4,121.5L62.3,121.3L62.6,120.8L62.7,121.5L62.4,121.5Z M60.0,120.8L60.1,120.7L60.1,120.8L60.1,120.9L60.0,120.8Z M60.4,121.0L61.0,119.5L62.3,120.0L62.2,121.3L60.4,121.0Z M59.0,119.7L59.4,120.1L58.2,120.8L58.9,118.5L59.0,119.7Z M60.5,119.9L60.3,119.8L60.6,118.9L60.6,119.6L60.5,119.9Z M63.8,119.0L63.7,119.0L63.8,118.9L63.8,119.0L63.8,119.0Z M57.5,118.5L57.6,118.2L58.6,118.2L57.5,118.5Z M59.3,115.1L61.9,114.4L64.7,115.5L61.2,117.4L59.3,115.1Z M65.0,115.5L65.0,115.5L65.1,115.5L65.0,115.5L65.0,115.5Z M58.1,115.4L57.9,115.2L58.1,115.0L58.2,115.1L58.1,115.4Z M62.9,114.7L62.9,114.6L63.0,114.5L63.0,114.6L62.9,114.7Z M24.5,134.3L27.3,128.9L25.8,125.6L41.5,117.2L41.1,115.0L39.6,113.6L40.4,114.7L33.8,116.8L23.4,116.8L21.0,112.3L29.2,105.2L28.6,95.6L36.4,92.3L35.4,84.0L28.9,79.4L29.8,77.0L34.1,76.7L36.1,72.4L45.0,72.2L46.4,69.0L52.2,68.2L59.7,74.8L63.3,72.5L66.1,73.7L67.4,71.7L72.0,72.0L72.7,75.4L70.4,76.0L75.7,86.7L99.5,96.1L97.6,98.7L97.5,102.1L95.2,101.6L96.3,103.6L92.2,105.2L74.3,101.8L72.6,98.9L74.3,101.8L70.3,104.8L65.2,103.3L58.7,104.5L53.6,113.3L38.0,121.2L35.3,125.5L29.3,129.3L29.9,131.2L24.5,134.3Z M109.1,259.3L109.2,259.0L109.9,259.1L109.1,259.3Z M110.7,258.3L110.6,258.2L110.7,258.2L110.7,258.3Z M107.8,257.8L107.8,257.6L107.9,257.6L107.8,257.8L107.8,257.8Z M105.6,257.4L105.5,257.3L106.0,257.2L105.6,257.4Z M106.0,257.1L106.1,257.0L106.2,257.0L106.2,257.1L106.0,257.1Z M98.2,246.8L98.2,246.8L98.2,246.8L98.2,246.9L98.2,246.8Z M98.3,246.4L98.5,246.3L98.6,246.4L98.3,246.4Z M74.3,244.9L74.4,244.9L74.5,245.0L74.3,245.0L74.3,244.9Z M90.6,244.0L90.7,244.0L90.7,244.1L90.6,244.1L90.6,244.0Z M99.2,243.2L99.4,243.2L99.2,243.4L99.2,243.2Z M97.7,242.9L97.9,242.8L98.1,243.0L97.8,243.2L97.7,242.9Z M93.8,242.8L94.3,242.8L94.3,243.3L93.8,242.8Z M94.6,242.3L95.1,242.5L94.5,243.2L94.4,242.6L94.6,242.3Z M97.4,242.6L97.6,242.7L97.6,242.8L97.4,242.7L97.4,242.6Z M88.8,241.9L89.0,241.9L89.0,241.9L88.8,242.0L88.8,241.9Z M94.9,241.8L95.0,241.8L95.0,241.9L94.9,241.9L94.9,241.8Z M96.8,241.9L96.8,241.7L97.0,241.8L97.0,241.9L96.8,241.9Z M94.7,241.7L94.8,241.7L94.9,241.8L94.8,241.9L94.7,241.7Z M95.0,241.5L95.0,241.6L94.9,241.7L95.0,241.5Z M94.9,241.4L95.0,241.3L95.0,241.4L94.9,241.4Z M77.4,241.2L77.5,241.2L77.5,241.3L77.4,241.2Z M95.1,240.5L95.4,240.9L95.1,241.1L95.0,240.9L95.1,240.5Z M72.6,239.7L72.7,239.7L72.7,239.8L72.6,239.8L72.6,239.7Z M74.4,239.7L74.3,239.7L74.4,239.7L74.4,239.8L74.4,239.7Z M82.3,239.2L82.5,239.4L82.2,239.4L82.3,239.2Z M86.4,238.6L86.5,238.6L86.4,238.6L86.4,238.6Z M77.6,238.3L77.8,238.2L77.8,238.6L77.4,238.2L77.6,238.3Z M78.3,237.8L78.5,237.8L78.5,237.9L78.3,237.8Z M82.5,236.5L82.5,236.4L82.6,236.5L82.5,236.5Z M75.2,234.1L75.2,234.2L75.1,234.2L75.1,234.1L75.2,234.1Z M75.1,233.9L75.1,233.8L75.2,233.8L75.2,233.9L75.1,233.9Z M76.1,233.3L76.2,233.2L76.3,233.4L76.0,233.4L76.1,233.3Z M76.3,232.3L76.4,232.2L76.5,232.4L76.3,232.4L76.3,232.3Z M76.5,232.1L76.5,232.2L76.4,232.1L76.4,232.1L76.5,232.1Z M77.3,232.0L77.3,232.0L77.2,232.0L77.2,232.0L77.3,232.0Z M45.3,197.6L42.2,199.1L41.2,194.9L39.5,192.9L36.4,193.3L35.3,196.7L30.2,191.6L26.1,191.4L27.9,189.7L27.5,187.9L29.8,190.1L32.5,187.9L32.3,187.1L31.7,186.2L33.4,186.2L30.2,185.7L29.2,179.5L30.8,178.1L36.1,182.9L35.1,186.3L37.4,190.0L38.1,189.7L38.2,186.0L39.7,188.2L40.8,188.6L50.0,185.8L44.4,186.1L38.6,179.1L39.4,178.6L39.1,176.2L43.0,176.4L44.1,175.4L43.0,173.5L44.9,174.2L47.4,171.8L46.8,169.8L40.6,169.5L40.6,166.9L42.8,165.5L38.5,159.6L35.7,159.2L36.8,157.5L37.3,158.9L37.1,158.1L42.1,152.6L43.9,152.3L43.7,149.2L21.8,152.6L24.4,146.7L24.7,136.2L28.7,134.9L30.5,129.5L33.6,128.8L39.4,122.9L46.5,123.3L53.0,120.6L53.6,123.9L60.5,125.8L60.4,127.1L60.7,125.6L65.1,126.0L68.1,123.8L63.2,120.6L64.9,118.8L72.0,120.4L68.6,123.3L70.0,124.5L76.7,123.0L98.1,124.2L100.6,122.2L91.4,118.1L109.8,112.0L111.0,113.8L120.6,112.7L103.2,110.0L103.4,108.8L103.8,109.0L105.1,108.1L105.6,107.2L103.3,108.4L96.8,103.4L100.9,96.5L118.7,99.1L119.1,100.6L118.7,99.2L126.1,99.3L129.1,96.9L141.4,100.9L153.2,100.6L158.1,96.9L157.9,93.6L177.0,84.2L180.4,80.6L207.3,71.0L239.9,73.5L244.5,73.1L248.2,68.5L250.0,68.6L251.6,70.8L254.6,70.3L251.9,74.1L256.7,80.7L264.0,83.5L273.9,80.1L276.5,81.7L278.5,88.9L285.0,95.5L288.2,95.4L290.9,91.9L292.0,91.5L314.3,103.0L318.0,99.3L320.7,100.0L323.0,104.1L329.2,105.1L326.3,111.8L329.2,105.2L339.6,106.4L349.9,102.3L362.3,100.3L367.9,103.7L383.0,106.0L387.0,102.9L391.1,102.8L404.3,96.7L413.0,91.3L416.6,86.8L423.6,89.8L426.9,86.9L441.3,89.6L443.4,85.0L449.4,85.0L448.7,87.9L450.9,87.6L458.7,94.1L456.7,95.6L459.3,98.1L464.7,98.0L465.6,102.8L470.8,106.0L472.7,114.0L467.5,120.5L470.9,127.5L469.1,129.4L471.8,130.5L470.3,132.3L476.6,135.2L486.3,134.3L491.4,136.9L500.0,147.8L495.0,143.0L491.7,145.6L489.9,154.7L479.9,156.0L481.9,161.4L484.6,163.4L482.9,164.9L484.6,167.0L483.7,168.1L487.1,173.2L487.2,187.6L492.0,189.5L489.5,191.9L489.4,195.3L485.1,203.6L489.7,204.7L490.9,207.4L493.7,207.5L494.6,207.9L494.4,217.8L500.0,222.2L499.6,227.3L495.3,226.1L488.0,230.5L487.2,233.1L484.2,228.9L486.2,224.5L482.7,221.9L470.6,224.7L457.8,220.1L452.9,221.9L448.4,220.0L443.2,227.3L437.3,228.6L437.2,224.8L434.0,221.9L429.5,226.0L416.8,229.3L397.0,228.2L373.1,239.9L357.4,242.8L344.8,241.5L340.5,237.2L331.1,235.1L313.0,243.6L302.9,244.2L301.3,243.0L302.0,240.9L299.2,239.1L292.3,237.0L291.1,237.2L292.4,237.9L289.2,248.2L290.6,253.6L293.1,256.1L285.3,257.0L284.8,264.1L280.5,265.7L279.4,270.1L275.6,268.0L275.3,266.1L273.0,266.3L274.6,263.6L269.5,254.6L272.8,249.9L280.1,245.0L280.4,239.1L275.6,234.3L269.9,239.6L266.6,239.5L264.0,241.3L264.5,242.4L265.5,240.6L268.1,241.3L264.1,246.0L260.3,245.2L258.3,246.9L258.5,244.8L256.0,242.4L254.2,241.9L253.8,242.5L257.9,246.2L247.5,240.9L248.3,240.0L240.8,238.2L231.2,245.4L223.2,256.7L220.8,254.0L216.2,259.8L215.2,257.9L212.9,260.1L210.7,259.1L202.4,259.7L200.7,261.9L197.4,260.8L193.6,263.7L180.7,256.6L173.9,246.9L156.1,238.2L147.8,236.6L138.0,236.9L136.3,243.4L137.2,245.3L134.4,250.2L135.7,253.4L132.5,257.4L132.6,255.3L127.3,254.0L125.1,256.2L120.2,256.7L114.1,260.0L113.1,257.9L111.6,258.2L112.7,257.6L105.7,256.8L99.3,251.7L99.9,246.8L96.9,246.7L99.3,242.6L94.9,239.9L92.7,245.3L91.3,242.2L86.9,241.6L86.2,238.0L83.0,238.1L82.8,235.9L80.9,237.0L82.1,237.3L81.3,239.0L78.5,238.8L79.2,237.6L77.8,237.0L78.9,240.7L71.8,246.2L70.1,244.9L73.6,243.4L72.2,241.9L70.3,242.2L74.5,240.9L73.3,240.3L74.2,238.4L72.5,239.8L69.4,240.4L64.3,239.7L63.0,243.1L60.3,242.2L56.0,242.9L54.9,241.4L62.0,238.1L72.0,238.9L72.8,237.8L71.2,237.4L72.7,236.0L71.7,234.5L75.5,235.1L75.2,233.8L76.4,233.6L76.7,232.1L79.6,231.0L69.3,231.1L60.3,232.3L60.1,232.9L56.5,230.9L53.4,233.4L52.4,233.2L52.2,227.9L53.6,228.4L55.0,227.0L55.5,228.2L57.7,229.5L60.5,227.7L59.1,225.8L61.4,226.0L61.3,223.1L57.3,223.9L58.4,221.9L55.5,221.5L56.7,219.8L56.3,218.6L54.1,221.1L50.6,220.7L51.5,216.9L50.3,216.9L49.8,213.3L51.2,213.1L45.8,210.9L51.5,208.9L52.7,201.8L45.3,197.6Z M73.4,121.3L73.5,121.2L73.6,121.4L73.4,121.3Z M72.8,121.1L73.1,121.0L73.2,121.3L72.8,121.1Z M73.7,120.9L73.7,120.7L73.9,120.8L73.9,120.8L73.7,120.9Z M84.9,118.2L85.1,118.9L84.6,119.4L84.4,117.7L85.3,117.7L84.9,118.2Z M99.5,109.5L99.6,109.5L99.6,109.6L99.5,109.5Z M100.5,108.7L100.3,108.5L100.3,108.3L100.5,108.5L100.5,108.7Z M99.6,108.9L99.4,108.2L100.2,107.9L99.6,108.9Z M96.5,108.1L96.4,108.0L96.6,108.0L96.6,108.1L96.5,108.1Z M95.9,107.8L96.0,107.7L96.0,107.8L95.9,107.8Z M98.6,108.0L99.1,107.4L99.3,107.8L98.6,108.0Z M98.5,107.6L98.0,107.7L98.2,107.3L98.5,107.6Z M98.6,107.5L98.6,107.4L98.7,107.4L98.7,107.4L98.6,107.5Z M97.8,106.9L97.7,106.5L98.0,106.4L98.1,106.7L97.8,106.9Z M113.1,260.5L112.7,260.7L113.0,260.3L113.1,260.5Z M212.1,260.3L212.2,260.2L212.2,260.0L212.3,260.3L212.1,260.3Z M115.5,260.2L115.9,259.6L116.2,259.9L115.5,260.2Z M113.4,259.9L113.4,259.9L113.6,259.8L113.5,260.0L113.4,259.9Z M113.4,259.6L113.3,259.6L113.3,259.6L113.4,259.6Z M112.1,259.5L110.9,260.3L111.8,258.8L112.1,259.5Z M112.5,259.3L112.6,259.2L112.7,259.3L112.5,259.3Z M112.8,259.3L112.7,259.3L112.8,259.2L112.8,259.3Z M216.4,259.0L216.4,259.1L216.3,259.0L216.4,259.0L216.4,259.0Z M112.6,259.0L112.6,259.0L112.7,258.9L112.7,259.0L112.6,259.0Z M112.7,259.0L112.7,259.0L112.7,259.0L112.7,258.9L112.7,259.0Z M118.9,258.8L118.9,258.7L118.9,258.7L118.9,258.8L118.9,258.8Z M118.0,258.8L117.9,258.7L118.0,258.7L118.0,258.8L118.0,258.8Z M117.9,258.7L118.0,258.6L117.9,258.7L117.9,258.7Z M119.2,258.5L118.1,258.7L120.0,257.8L119.2,258.5Z M132.5,258.5L132.4,258.0L132.6,258.0L132.6,258.4L132.5,258.5Z M119.9,258.1L119.9,258.1L119.9,258.0L119.9,258.1L119.9,258.1Z M217.9,258.3L218.1,258.1L218.5,257.7L218.5,258.2L217.9,258.3Z M132.3,257.8L132.4,257.7L132.5,257.7L132.4,257.8L132.3,257.8Z M119.7,257.7L119.6,257.7L119.6,257.5L119.7,257.6L119.7,257.7Z M119.7,257.5L119.5,257.4L119.8,257.3L119.7,257.5Z M134.4,256.8L134.1,256.6L134.2,256.4L134.4,256.7L134.4,256.8Z M125.7,255.7L125.7,255.6L125.8,255.6L125.8,255.7L125.7,255.7Z M219.7,255.7L219.7,255.6L219.8,255.5L219.8,255.6L219.7,255.7Z M136.3,249.5L136.1,249.5L136.2,249.4L136.3,249.5Z M256.8,243.7L256.7,243.6L256.8,243.7L256.8,243.7Z M256.6,243.6L256.5,243.5L256.5,243.5L256.6,243.5L256.6,243.6Z M164.5,243.4L164.6,243.4L164.6,243.4L164.5,243.4Z M255.0,243.3L255.0,243.3L254.9,243.3L254.9,243.3L255.0,243.3Z M255.0,243.2L255.0,243.1L255.0,243.1L255.0,243.2Z M255.0,243.0L255.1,243.0L255.1,243.0L255.0,243.0Z M255.0,242.4L255.0,242.4L254.9,242.4L255.0,242.4L255.0,242.4Z M264.7,241.7L264.7,241.6L264.7,241.6L264.7,241.7L264.7,241.7Z M265.0,241.7L265.1,241.5L265.1,241.5L265.1,241.7L265.0,241.7Z M266.9,241.3L267.0,241.2L267.0,241.2L267.0,241.3L266.9,241.3Z M279.9,241.0L279.9,241.0L279.8,240.9L279.9,241.0L279.9,241.0Z M267.5,240.9L267.4,240.9L267.4,240.8L267.5,240.9L267.5,240.9Z M137.2,238.4L137.2,238.5L137.2,238.4L137.2,238.4L137.2,238.4Z M337.3,106.0L337.2,106.0L337.2,105.9L337.3,106.0L337.3,106.0Z M131.6,98.0L131.6,98.0L131.6,98.0L131.6,98.0Z M301.5,97.3L301.4,97.3L301.4,97.3L301.5,97.3L301.5,97.3Z M301.4,97.3L301.4,97.3L301.3,97.3L301.4,97.3Z M128.7,96.7L128.9,96.7L128.8,96.8L128.7,96.7Z M291.9,91.5L292.0,91.7L291.9,91.7L291.8,91.6L291.9,91.5Z M183.1,79.5L183.1,79.6L183.1,79.6L183.0,79.5L183.1,79.5Z" fill="none" stroke="rgba(255,255,255,0.2)" stroke-width="1"/>
<text x="256" y="322" font-family="Arial Black,Arial,sans-serif" font-size="48" font-weight="900" text-anchor="middle" fill="#facc15" filter="url(#glow)">TÜRKİYE</text>
<text x="256" y="366" font-family="Arial Black,Arial,sans-serif" font-size="24" font-weight="900" text-anchor="middle" fill="#e2e8f0" letter-spacing="1">KÜLTÜREL MİRAS</text>
<text x="256" y="402" font-family="Arial Black,Arial,sans-serif" font-size="32" font-weight="900" text-anchor="middle" fill="#4ade80" letter-spacing="3">AVCISI</text>
<text x="256" y="448" font-family="Arial,sans-serif" font-size="13" font-weight="700" text-anchor="middle" fill="rgba(255,255,255,0.3)" letter-spacing="3">TÜBİTAK 4006</text>
</svg>